<?xml version="1.0" encoding="utf-8"?>
<!-- Generator: Adobe Illustrator 18.1.1, SVG Export Plug-In . SVG Version: 6.00 Build 0)  -->
<svg version="1.1" id="Слой_1" xmlns="http://www.w3.org/2000/svg" xmlns:xlink="http://www.w3.org/1999/xlink" x="0px" y="0px"
	 viewBox="0 0 340.836 78.61" enable-background="new 0 0 340.836 78.61" xml:space="preserve">
<g>
	<linearGradient id="SVGID_1_" gradientUnits="userSpaceOnUse" x1="15.1695" y1="45.1004" x2="68.736" y2="17.5597">
		<stop  offset="0" style="stop-color:#880102"/>
		<stop  offset="0.102" style="stop-color:#8D0406"/>
		<stop  offset="0.2615" style="stop-color:#9D0B0F"/>
		<stop  offset="0.4584" style="stop-color:#B91319"/>
		<stop  offset="0.6833" style="stop-color:#DE1A22"/>
		<stop  offset="0.7452" style="stop-color:#EC1C24"/>
		<stop  offset="0.8897" style="stop-color:#9F0B10"/>
		<stop  offset="0.9645" style="stop-color:#790000"/>
	</linearGradient>
	<path fill-rule="evenodd" clip-rule="evenodd" fill="url(#SVGID_1_)" d="M68.308,15.124c3.595,6.226-5.428,18.171-18.622,24.865
		c-7.373,3.74-12.728,9.911-19.059,10.723c-8.993,1.153-22.096,4.32-21.75-4.542l4.005-7.097l1.004-2.226l2.06-3.622
		c3.634-6.391,13.548-8.538,23.865-9.039c11.262-0.547,21.757-5.225,23.102-14.44c0.178-1.223,0.08-2.206-0.084-3.59l4.755,7.714
		L68.308,15.124L68.308,15.124z"/>
	<linearGradient id="SVGID_2_" gradientUnits="userSpaceOnUse" x1="15.904" y1="45.5349" x2="22.4823" y2="26.5409">
		<stop  offset="0.1147" style="stop-color:#58100B"/>
		<stop  offset="1" style="stop-color:#640D0D;stop-opacity:0"/>
	</linearGradient>
	<path fill-rule="evenodd" clip-rule="evenodd" fill="url(#SVGID_2_)" d="M12.179,39.85l3.767-6.625
		c-1.408,2.44-1.243,5.573-0.001,6.982c1.423,1.616,2.666,0.255,4.345-2.203c2.58-3.776,6.125-8.758,7.721-10.987
		c-1.209,2.095-10.751,18.62-11.96,20.715L12.179,39.85L12.179,39.85z"/>
	<linearGradient id="SVGID_3_" gradientUnits="userSpaceOnUse" x1="29.884" y1="50.4172" x2="57.0616" y2="16.6583">
		<stop  offset="0" style="stop-color:#640D0D"/>
		<stop  offset="0.9777" style="stop-color:#640D0D;stop-opacity:0"/>
	</linearGradient>
	<path fill-rule="evenodd" clip-rule="evenodd" fill="url(#SVGID_3_)" d="M41.007,45.786c-4.201,2.973-6.191,4.389-10.38,4.926
		l-0.134,0.017l0.278-6.621l13.344-20.553c2,0.066,3.707,0.132,6.219-0.717C45.281,30.301,42.637,38.091,41.007,45.786
		L41.007,45.786z"/>
	<linearGradient id="SVGID_4_" gradientUnits="userSpaceOnUse" x1="67.2862" y1="10.3097" x2="58.3868" y2="34.5026">
		<stop  offset="0.0328" style="stop-color:#640D0D"/>
		<stop  offset="1" style="stop-color:#640D0D;stop-opacity:0"/>
	</linearGradient>
	<path fill-rule="evenodd" clip-rule="evenodd" fill="url(#SVGID_4_)" d="M68.308,15.124c2.21,3.828-2.255,12.355-7.853,16.39
		c3.212-2.905,4.391-14.872,1.694-17.775c0.82-1.962,0.893-3.976,0.906-4.679l0.316-1.423L68.308,15.124L68.308,15.124z"/>
	<linearGradient id="SVGID_5_" gradientUnits="userSpaceOnUse" x1="60.4822" y1="38.4676" x2="85.6239" y2="89.0979">
		<stop  offset="0.2832" style="stop-color:#8B0304"/>
		<stop  offset="0.7365" style="stop-color:#ED1C24"/>
	</linearGradient>
	<path fill-rule="evenodd" clip-rule="evenodd" fill="url(#SVGID_5_)" d="M46.656,59.553c3.86-1.034,8.716,2.309,11.139,4.825
		l3.908,4.058c5.087,5.282,12.038,8.551,19.187,9.635c8.879,1.346,16.965,0.047,22.295-2.537l-8.17-14.152l-4.292-6.975l-4.037-7.3
		C80.269,40.658,54.532,37.57,46.656,59.553L46.656,59.553z"/>
	<linearGradient id="SVGID_6_" gradientUnits="userSpaceOnUse" x1="68.9155" y1="45.0948" x2="76.12" y2="74.0142">
		<stop  offset="0.1882" style="stop-color:#640D0D"/>
		<stop  offset="0.5895" style="stop-color:#640D0D;stop-opacity:0"/>
	</linearGradient>
	<path fill-rule="evenodd" clip-rule="evenodd" fill="url(#SVGID_6_)" d="M50.551,58.887c2.947,0.757,5.895,2.961,7.616,4.747
		c4.92-4.076,20.78-18.012,36.423-2.989l-8.526-13.54c-1.145-1.15-2.201-2.192-4.368-3.005l-18.38-0.587
		c-1.148,0.333-2.284,0.747-3.397,1.245L50.551,58.887L50.551,58.887z"/>
	<linearGradient id="SVGID_7_" gradientUnits="userSpaceOnUse" x1="42.4944" y1="69.1528" x2="92.931" y2="45.7469">
		<stop  offset="0" style="stop-color:#F8A68A"/>
		<stop  offset="0.0553" style="stop-color:#F8A286"/>
		<stop  offset="0.1224" style="stop-color:#F7977A"/>
		<stop  offset="0.1955" style="stop-color:#F58567"/>
		<stop  offset="0.273" style="stop-color:#F26A4D"/>
		<stop  offset="0.353" style="stop-color:#EF4130"/>
		<stop  offset="0.3947" style="stop-color:#ED1C24"/>
		<stop  offset="0.4177" style="stop-color:#EE2726"/>
		<stop  offset="0.451" style="stop-color:#EF3F30"/>
		<stop  offset="0.4905" style="stop-color:#F15C44"/>
		<stop  offset="0.5349" style="stop-color:#F47E64"/>
		<stop  offset="0.5833" style="stop-color:#F8A490"/>
		<stop  offset="0.6343" style="stop-color:#FCD6D1"/>
		<stop  offset="0.6529" style="stop-color:#FDEBEF"/>
		<stop  offset="0.7008" style="stop-color:#FDE8EA"/>
		<stop  offset="0.7445" style="stop-color:#FDDFDE"/>
		<stop  offset="0.7865" style="stop-color:#FCD1CA"/>
		<stop  offset="0.8275" style="stop-color:#FABEB0"/>
		<stop  offset="0.8678" style="stop-color:#F8A591"/>
		<stop  offset="0.9075" style="stop-color:#F58970"/>
		<stop  offset="0.9469" style="stop-color:#F2664C"/>
		<stop  offset="0.9849" style="stop-color:#EE312A"/>
		<stop  offset="0.9938" style="stop-color:#ED1C24"/>
	</linearGradient>
	<path fill-rule="evenodd" clip-rule="evenodd" fill="url(#SVGID_7_)" d="M95.363,61.985c-5.574-9.616-12.18-13.659-19.055-14.103
		c-9.578-0.619-23.231,11.991-29.821,17.263C43.967,59.998,68.64,14.831,95.363,61.985L95.363,61.985z"/>
	<linearGradient id="SVGID_8_" gradientUnits="userSpaceOnUse" x1="28.0198" y1="43.8875" x2="70.6353" y2="13.9422">
		<stop  offset="0" style="stop-color:#F9AC98"/>
		<stop  offset="0.0518" style="stop-color:#F8A893"/>
		<stop  offset="0.1145" style="stop-color:#F79E86"/>
		<stop  offset="0.183" style="stop-color:#F58C72"/>
		<stop  offset="0.2555" style="stop-color:#F27459"/>
		<stop  offset="0.3303" style="stop-color:#EF513A"/>
		<stop  offset="0.3947" style="stop-color:#EC1C24"/>
		<stop  offset="0.4307" style="stop-color:#EC2826"/>
		<stop  offset="0.4827" style="stop-color:#EE4130"/>
		<stop  offset="0.5445" style="stop-color:#F05F44"/>
		<stop  offset="0.6139" style="stop-color:#F48165"/>
		<stop  offset="0.6896" style="stop-color:#F8AB92"/>
		<stop  offset="0.7694" style="stop-color:#FDE0D6"/>
		<stop  offset="0.7735" style="stop-color:#FDE3DA"/>
		<stop  offset="0.7954" style="stop-color:#FDE0D6"/>
		<stop  offset="0.8155" style="stop-color:#FDD7CA"/>
		<stop  offset="0.8348" style="stop-color:#FBC9B7"/>
		<stop  offset="0.8536" style="stop-color:#F9B49E"/>
		<stop  offset="0.8721" style="stop-color:#F69B80"/>
		<stop  offset="0.8903" style="stop-color:#F37D60"/>
		<stop  offset="0.908" style="stop-color:#EF563D"/>
		<stop  offset="0.9232" style="stop-color:#EC1C24"/>
	</linearGradient>
	<path fill-rule="evenodd" clip-rule="evenodd" fill="url(#SVGID_8_)" d="M45.02,29.083L33.099,50.125
		c-0.417,0.22-1.079,0.393-1.481,0.578l12.208-22.401c3.739-6.862,14.15-18.377,20.749-16.648c1.369,0.359,2.608,1.364,3.733,3.47
		C61.704,7.301,49.671,20.874,45.02,29.083L45.02,29.083z"/>
	<linearGradient id="SVGID_9_" gradientUnits="userSpaceOnUse" x1="-0.529" y1="74.0115" x2="80.1208" y2="26.619">
		<stop  offset="0.1314" style="stop-color:#C6161D"/>
		<stop  offset="0.1868" style="stop-color:#CA171E"/>
		<stop  offset="0.2576" style="stop-color:#D61920"/>
		<stop  offset="0.3364" style="stop-color:#EC1C24"/>
		<stop  offset="0.3887" style="stop-color:#EE4031"/>
		<stop  offset="0.5014" style="stop-color:#F37963"/>
		<stop  offset="0.5799" style="stop-color:#F79D8D"/>
		<stop  offset="0.6271" style="stop-color:#F37C66"/>
		<stop  offset="0.6869" style="stop-color:#EF523E"/>
		<stop  offset="0.7313" style="stop-color:#ED2F29"/>
		<stop  offset="0.7548" style="stop-color:#EC1C24"/>
		<stop  offset="0.7738" style="stop-color:#EE4231"/>
		<stop  offset="0.8146" style="stop-color:#F37F65"/>
		<stop  offset="0.8521" style="stop-color:#F9B2A0"/>
		<stop  offset="0.8588" style="stop-color:#F8A995"/>
		<stop  offset="0.8709" style="stop-color:#F6937A"/>
		<stop  offset="0.8871" style="stop-color:#F26E54"/>
		<stop  offset="0.9065" style="stop-color:#EC2A27"/>
		<stop  offset="0.9088" style="stop-color:#EC1C24"/>
		<stop  offset="0.9131" style="stop-color:#EC2526"/>
		<stop  offset="0.9187" style="stop-color:#ED3A2D"/>
		<stop  offset="0.9248" style="stop-color:#EF543C"/>
		<stop  offset="0.9313" style="stop-color:#F27156"/>
		<stop  offset="0.9382" style="stop-color:#F69278"/>
		<stop  offset="0.9453" style="stop-color:#FABAA9"/>
		<stop  offset="0.9459" style="stop-color:#FABEAE"/>
		<stop  offset="0.9524" style="stop-color:#F8A892"/>
		<stop  offset="0.9667" style="stop-color:#F27257"/>
		<stop  offset="0.9813" style="stop-color:#EC1C24"/>
	</linearGradient>
	<path fill-rule="evenodd" clip-rule="evenodd" fill="url(#SVGID_9_)" d="M68.308,15.124c-5.17-8.954-18.547,3.577-23.924,13.178
		L31.993,50.427c10.142-4.668,25.201-21.185,37.73-20.518c6.99,0.372,10.006,4.998,13.269,10.649l12.371,21.427
		c-21.247-36.801-44.115,4.579-62.645,13.382C21.361,80.762,6.454,78.371,0,75.534l25.796-44.68l9.115-15.788
		C46.07-4.26,58.293-2.222,62.945,5.836L68.308,15.124L68.308,15.124z"/>
	<linearGradient id="SVGID_10_" gradientUnits="userSpaceOnUse" x1="80.0043" y1="4.0951" x2="28.7874" y2="51.4198">
		<stop  offset="0.0071" style="stop-color:#FFFFFF"/>
		<stop  offset="0.9273" style="stop-color:#FFFFFF;stop-opacity:0"/>
	</linearGradient>
	<path fill-rule="evenodd" clip-rule="evenodd" fill="url(#SVGID_10_)" d="M0.799,75.266c3.459,1.41,7.704,2.199,11.346,2.544
		c5.139,0.487,10.559,0.223,15.545-1.171c1.641-0.459,3.248-1.044,4.787-1.775c3.229-1.534,6.312-3.901,9.056-6.175
		c3.305-2.739,6.462-5.667,9.676-8.513c4.385-3.881,10.341-8.809,14.741-10.81c5.764-3.048,3.749-7.291,1.561-10.326
		c-2.205-3.06-0.097-8.393,3.02-8.41c-5.228-0.732-12.444,3.047-13.953,3.894c-2.531,1.42-4.884,3.086-7.289,4.804
		c-3.035,2.166-5.99,4.44-9.018,6.614c-2.501,1.796-5.246,3.704-8.047,4.993l-1.558,0.717L43.897,28.03
		c1.464-2.614,3.936-5.897,6.358-8.629c3.242-4.466,1.277-7.765-0.919-10.103c-2.056-2.189-2.672-6.211,2.399-8.521
		c-7.195,1.316-12.883,8.578-16.34,14.568L0.799,75.266L0.799,75.266z"/>
	<linearGradient id="SVGID_11_" gradientUnits="userSpaceOnUse" x1="48.5792" y1="85.1271" x2="3.8827" y2="38.2201">
		<stop  offset="0" style="stop-color:#7F0000"/>
		<stop  offset="1" style="stop-color:#870602;stop-opacity:0"/>
	</linearGradient>
	<path fill-rule="evenodd" clip-rule="evenodd" fill="url(#SVGID_11_)" d="M50.856,61.241l-14.61,11.951
		c-6.025,4.802-24.075,3.585-30.002-6.857l14.48-25.282C21.126,49.816,38.373,70.321,50.856,61.241L50.856,61.241z"/>
	<linearGradient id="SVGID_12_" gradientUnits="userSpaceOnUse" x1="11.9499" y1="37.3128" x2="46.4581" y2="67.5851">
		<stop  offset="0" style="stop-color:#E41E26"/>
		<stop  offset="0.0463" style="stop-color:#E42728"/>
		<stop  offset="0.1133" style="stop-color:#E63C31"/>
		<stop  offset="0.1929" style="stop-color:#E85644"/>
		<stop  offset="0.2821" style="stop-color:#EC7562"/>
		<stop  offset="0.3783" style="stop-color:#F0978A"/>
		<stop  offset="0.4298" style="stop-color:#F3ACA6"/>
		<stop  offset="0.5149" style="stop-color:#F3AAA3"/>
		<stop  offset="0.5924" style="stop-color:#F2A29A"/>
		<stop  offset="0.6671" style="stop-color:#F0978A"/>
		<stop  offset="0.7399" style="stop-color:#EE8776"/>
		<stop  offset="0.8114" style="stop-color:#EB725F"/>
		<stop  offset="0.882" style="stop-color:#E85543"/>
		<stop  offset="0.9506" style="stop-color:#E42928"/>
		<stop  offset="0.961" style="stop-color:#E31E26"/>
	</linearGradient>
	<path fill-rule="evenodd" clip-rule="evenodd" fill="url(#SVGID_12_)" d="M15.51,33.981C4.489,51.446,35.216,74.526,51.819,60.383
		c-8.268,6.09-19.794,1.137-26.085-3.304C16.14,50.305,12.319,39.604,15.51,33.981L15.51,33.981z"/>
	<linearGradient id="SVGID_13_" gradientUnits="userSpaceOnUse" x1="42.6858" y1="69.0199" x2="4.1602" y2="46.2281">
		<stop  offset="0.0348" style="stop-color:#E91C23"/>
		<stop  offset="0.2099" style="stop-color:#EC1C24"/>
		<stop  offset="0.2673" style="stop-color:#EE4131"/>
		<stop  offset="0.3921" style="stop-color:#F37D65"/>
		<stop  offset="0.531" style="stop-color:#FABBAF"/>
		<stop  offset="0.5373" style="stop-color:#F9B6AA"/>
		<stop  offset="0.6303" style="stop-color:#F38068"/>
		<stop  offset="0.7067" style="stop-color:#EF543E"/>
		<stop  offset="0.7629" style="stop-color:#ED3029"/>
		<stop  offset="0.7928" style="stop-color:#EC1C24"/>
		<stop  offset="0.8039" style="stop-color:#EC2827"/>
		<stop  offset="0.8212" style="stop-color:#EE4132"/>
		<stop  offset="0.8426" style="stop-color:#F1604A"/>
		<stop  offset="0.8669" style="stop-color:#F4836D"/>
		<stop  offset="0.8808" style="stop-color:#F69785"/>
		<stop  offset="0.8919" style="stop-color:#F69582"/>
		<stop  offset="0.9021" style="stop-color:#F58D79"/>
		<stop  offset="0.9119" style="stop-color:#F4816B"/>
		<stop  offset="0.9214" style="stop-color:#F27059"/>
		<stop  offset="0.9308" style="stop-color:#F05742"/>
		<stop  offset="0.9399" style="stop-color:#ED3029"/>
		<stop  offset="0.9427" style="stop-color:#EC1C24"/>
	</linearGradient>
	<path fill-rule="evenodd" clip-rule="evenodd" fill="url(#SVGID_13_)" d="M15.946,33.225l-9.91,17.173
		c-9.497,16.46,17.427,31.654,30.479,22.778c4.614-3.063,8.17-6.45,15.449-12.921C37.716,72.942,6.214,50.339,15.946,33.225
		L15.946,33.225z"/>
	<linearGradient id="SVGID_14_" gradientUnits="userSpaceOnUse" x1="26.3574" y1="66.969" x2="5.0881" y2="47.0505">
		<stop  offset="0.1153" style="stop-color:#FFFFFF"/>
		<stop  offset="0.8959" style="stop-color:#FFFFFF;stop-opacity:0"/>
	</linearGradient>
	<path fill-rule="evenodd" clip-rule="evenodd" fill="url(#SVGID_14_)" d="M17.09,50.691c-2.634-3.822-3.956-8.173-3.427-12.392
		L6.52,50.677c-1.694,2.936-2.366,6.143-1.597,9.474c0.746,3.233,2.67,6.098,5.172,8.367c0.885,0.802,4.665,3.722,6.473,4.247
		c-3.996-2.891-4.147-7.677-1.58-11.03C17.586,58.34,19.714,54.499,17.09,50.691L17.09,50.691z"/>
	<linearGradient id="SVGID_15_" gradientUnits="userSpaceOnUse" x1="99.9156" y1="100.6878" x2="79.9363" y2="59.0064">
		<stop  offset="0.2508" style="stop-color:#FFFFFF"/>
		<stop  offset="1" style="stop-color:#FFFFFF;stop-opacity:0"/>
	</linearGradient>
	<path fill-rule="evenodd" clip-rule="evenodd" fill="url(#SVGID_15_)" d="M101.566,75.118c-9.61,3.69-19.037,3.489-28.028-0.447
		c7.458,2.616,11.801-1.39,13.365-6.646c1.163-3.912,5.105-9.612,8.563-3.568L101.566,75.118L101.566,75.118z"/>
</g>

</svg>
